<svg id="visual" viewBox="0 0 900 900" width="900" height="900" xmlns="http://www.w3.org/2000/svg" xmlns:xlink="http://www.w3.org/1999/xlink" version="1.1"><path d="M0 426L25 439.5C50 453 100 480 150 529.3C200 578.7 250 650.3 300 649.7C350 649 400 576 450 571C500 566 550 629 600 648.8C650 668.7 700 645.3 750 642.2C800 639 850 656 875 664.5L900 673L900 901L875 901C850 901 800 901 750 901C700 901 650 901 600 901C550 901 500 901 450 901C400 901 350 901 300 901C250 901 200 901 150 901C100 901 50 901 25 901L0 901Z" fill="#EC407A" stroke-linecap="round" stroke-linejoin="miter"></path></svg>