<svg id="visual" viewBox="0 0 900 900" width="900" height="900" xmlns="http://www.w3.org/2000/svg" xmlns:xlink="http://www.w3.org/1999/xlink" version="1.1"><path d="M0 684L37.5 702.2C75 720.3 150 756.7 225 771.2C300 785.7 375 778.3 450 759C525 739.7 600 708.3 675 700.7C750 693 825 709 862.5 717L900 725L900 901L862.5 901C825 901 750 901 675 901C600 901 525 901 450 901C375 901 300 901 225 901C150 901 75 901 37.5 901L0 901Z" fill="#0066FF" stroke-linecap="round" stroke-linejoin="miter"></path></svg>