<svg id="visual" viewBox="0 0 900 900" width="900" height="900" xmlns="http://www.w3.org/2000/svg" xmlns:xlink="http://www.w3.org/1999/xlink" version="1.1"><path d="M0 583L15 575C30 567 60 551 90 572.7C120 594.3 150 653.7 180 673C210 692.3 240 671.7 270 656.2C300 640.7 330 630.3 360 627.5C390 624.7 420 629.3 450 644C480 658.7 510 683.3 540 673C570 662.7 600 617.3 630 593.7C660 570 690 568 720 581.8C750 595.7 780 625.3 810 651.3C840 677.3 870 699.7 885 710.8L900 722L900 901L885 901C870 901 840 901 810 901C780 901 750 901 720 901C690 901 660 901 630 901C600 901 570 901 540 901C510 901 480 901 450 901C420 901 390 901 360 901C330 901 300 901 270 901C240 901 210 901 180 901C150 901 120 901 90 901C60 901 30 901 15 901L0 901Z" fill="#CD6688" stroke-linecap="round" stroke-linejoin="miter"></path></svg>