<svg id="visual" viewBox="0 0 900 900" width="900" height="900" xmlns="http://www.w3.org/2000/svg" xmlns:xlink="http://www.w3.org/1999/xlink" version="1.1"><path d="M0 575L30 570.7C60 566.3 120 557.7 180 543.5C240 529.3 300 509.7 360 527.5C420 545.3 480 600.7 540 648C600 695.3 660 734.7 720 707.2C780 679.7 840 585.3 870 538.2L900 491L900 901L870 901C840 901 780 901 720 901C660 901 600 901 540 901C480 901 420 901 360 901C300 901 240 901 180 901C120 901 60 901 30 901L0 901Z" fill="#F8BBD0" stroke-linecap="round" stroke-linejoin="miter"></path></svg>